<?xml version="1.0" encoding="UTF-8" standalone="no"?>
<!DOCTYPE svg PUBLIC "-//W3C//DTD SVG 1.1//EN" "http://www.w3.org/Graphics/SVG/1.1/DTD/svg11.dtd">
<!--Generated by Intaglio, www.PurgatoryDesign.com-->
<svg version="1.1" viewBox="0,0,576,734" width="576" height="734" xmlns="http://www.w3.org/2000/svg" xmlns:xlink="http://www.w3.org/1999/xlink" xmlns:intaglio="http://purgatorydesign.com/namespaces/intaglio" intaglio:grid="36,36,1,1,0.5,#9999bf,1,0,0,0" intaglio:guides="0.8,#f0f,0,1"><image xlink:href="2.pdf" width="504" height="360" transform="matrix(0.667,0,0,0.667,18.7899,290.148)"/><image xlink:href="1.pdf" width="504" height="216" transform="matrix(1,0,0,1,11.8591,50.9111)"/><text fill="#000100" font-family="Helvetica" font-size="18" transform="matrix(1,0,0,1,34.7363,50.9111)" xml:space="preserve"><tspan>A</tspan></text><text fill="#000100" font-family="Helvetica" font-size="18" transform="matrix(1,0,0,1,280.975,50.9111)" xml:space="preserve"><tspan>B</tspan></text><text fill="#000100" font-family="Helvetica" font-size="18" transform="matrix(1,0,0,1,34.7363,303.411)" xml:space="preserve"><tspan>C</tspan></text><text fill="#ff0004" font-family="Helvetica" font-size="12" transform="matrix(1,0,0,1,191.488,385.356)" xml:space="preserve"><tspan>this effect</tspan></text><text fill="#ff0004" font-family="Helvetica" font-size="12" transform="matrix(1,0,0,1,213.728,92.7864)" xml:space="preserve"><tspan>effect</tspan></text><path fill="none" stroke="#ff0004" stroke-width="2" d="M168.499,67.9546 L205.249,67.9546"/><text fill="#ff0004" font-family="Helvetica" font-size="12" transform="matrix(1,0,0,1,347.086,112.651)" xml:space="preserve"><tspan>effect</tspan></text><path fill="none" stroke="#ff0004" stroke-width="2" d="M347.086,186.107 L380.05,186.107"/><path fill="none" stroke="#ff0004" stroke-width="2" d="M380.05,73.6917 L402.394,73.6917"/><g><path fill="none" intaglio:arrow-start="1" intaglio:arrow-end="1" stroke="#ff0004" stroke-dasharray="5" d="M380.05,85.9103 L380.05,172.282" intaglio:d="M380.05,76.4103 L380.05,181.782"/><path fill="#ff0004" intaglio:omit="yes" d="M376.05,86.4103 L380.05,76.4103 L384.05,86.4103"/><path fill="#ff0004" intaglio:omit="yes" d="M384.05,171.782 L380.05,181.782 L376.05,171.782"/></g><path fill="none" stroke="#ff0004" stroke-width="2" d="M98.3181,111.673 L205.249,111.673"/><g><path fill="none" intaglio:arrow-start="1" intaglio:arrow-end="1" stroke="#ff0004" stroke-dasharray="5" d="M205.249,81.8361 L205.249,95.2288" intaglio:d="M205.249,72.3361 L205.249,104.729"/><path fill="#ff0004" intaglio:omit="yes" d="M201.249,82.3361 L205.249,72.3361 L209.249,82.3361"/><path fill="#ff0004" intaglio:omit="yes" d="M209.249,94.7288 L205.249,104.729 L201.249,94.7288"/></g><g><path fill="none" intaglio:arrow-start="1" intaglio:arrow-end="1" stroke="#ff0004" stroke-dasharray="5" d="M206.232,443.551 L269.117,443.551" intaglio:d="M196.732,443.551 L278.617,443.551"/><path fill="#ff0004" intaglio:omit="yes" d="M206.732,447.551 L196.732,443.551 L206.732,439.551"/><path fill="#ff0004" intaglio:omit="yes" d="M268.617,439.551 L278.617,443.551 L268.617,447.551"/></g><g><path fill="none" intaglio:arrow-end="1" stroke="#ff0004" stroke-linecap="round" d="M303.424,402.032 C309.99,409.229,322.339,419.644,323.83,426.14 C326.455,437.577,324.486,443.741,320.074,448.51 C313.874,455.211,303.954,458.401,291.465,458.401 C280.178,458.401,275.335,458.401,267.051,453.469" intaglio:d="M303.424,402.032 C309.99,409.229,322.339,419.644,323.83,426.14 C326.455,437.577,324.486,443.741,320.074,448.51 C313.874,455.211,303.954,458.401,291.465,458.401 C277.054,458.401,273.147,458.401,259.172,448.135"/><path fill="#ff0004" intaglio:omit="yes" d="M269.473,450.25 C265.986,449.833,262.57,448.993,259.172,448.135 C261.125,451.243,263.125,454.334,265.462,457.172"/></g><text fill="#ff0004" font-family="Helvetica" font-size="12" transform="matrix(1,0,0,1,270.814,472.295)" xml:space="preserve"><tspan>is this difference</tspan></text><g><path fill="none" intaglio:arrow-end="1" stroke="#ff0004" stroke-linecap="round" d="M249.368,382.28 C254.803,381.749,258.449,381.337,263.611,382.28 C266.079,382.73,268.56,384.499,271.01,386.474" intaglio:d="M249.368,382.28 C254.803,381.749,258.449,381.337,263.611,382.28 C268.686,383.206,273.815,389.707,278.617,392.108"/><path fill="#ff0004" intaglio:omit="yes" d="M268.111,389.28 C271.605,390.25,274.983,391.693,278.617,392.108 C276.325,389.368,274.929,386.059,273.101,383.027"/></g><path fill="none" stroke="#ff0004" stroke-width="2" d="M283.305,436.68 L283.305,455.378"/><path fill="none" stroke="#ff0004" stroke-width="2" d="M192.458,436.68 L192.458,460.341"/></svg>
